<?xml version="1.0" encoding="utf-8"?>
<svg xmlns="http://www.w3.org/2000/svg" viewBox="0.9999 0 22.0003 24.0037" width="469.34px" height="512.079px" preserveAspectRatio="none"><path d="M 20.137 24 C 19.39 23.998 18.674 23.697 18.15 23.165 L 12 17.051 L 5.85 23.169 C 5.042 23.989 3.814 24.231 2.755 23.778 C 1.686 23.348 0.989 22.307 1 21.154 L 1 5 C 1 2.239 3.239 0 6 0 L 18 0 C 20.761 0 23 2.239 23 5 L 23 21.154 C 23.011 22.306 22.317 23.347 21.249 23.778 C 20.897 23.925 20.519 24.001 20.137 24 Z" id="object-0" transform="matrix(1, 0, 0, 1, -4.440892098500626e-16, 0)"/></svg>